<svg xmlns="http://www.w3.org/2000/svg" width="1600" height="520" viewBox="0 0 1600 520" role="img" aria-labelledby="title desc">
  <title id="title">TharinduHub Stremio-TG</title>
  <desc id="desc">Telegram-powered Stremio media library control room</desc>
  <defs>
    <linearGradient id="bg" x1="0" y1="0" x2="1" y2="1">
      <stop offset="0" stop-color="#070b16"/>
      <stop offset="0.46" stop-color="#101d3f"/>
      <stop offset="1" stop-color="#21164b"/>
    </linearGradient>
    <radialGradient id="glowA" cx="0" cy="0" r="1" gradientTransform="translate(1265 75) rotate(135) scale(585 450)">
      <stop stop-color="#5ce6ff" stop-opacity=".34"/>
      <stop offset="1" stop-color="#5ce6ff" stop-opacity="0"/>
    </radialGradient>
    <radialGradient id="glowB" cx="0" cy="0" r="1" gradientTransform="translate(145 510) rotate(-24) scale(570 310)">
      <stop stop-color="#9c70ff" stop-opacity=".30"/>
      <stop offset="1" stop-color="#9c70ff" stop-opacity="0"/>
    </radialGradient>
    <linearGradient id="primary" x1="0" y1="0" x2="1" y2="1">
      <stop stop-color="#68e9ff"/>
      <stop offset=".48" stop-color="#7ca8ff"/>
      <stop offset="1" stop-color="#aa79ff"/>
    </linearGradient>
    <linearGradient id="panel" x1="0" y1="0" x2="1" y2="1">
      <stop stop-color="#19284e"/>
      <stop offset="1" stop-color="#0c142a"/>
    </linearGradient>
    <pattern id="grid" width="42" height="42" patternUnits="userSpaceOnUse">
      <path d="M42 0H0V42" fill="none" stroke="#cfe8ff" stroke-opacity=".05"/>
    </pattern>
    <filter id="shadow" x="-40%" y="-40%" width="180%" height="180%"><feDropShadow dx="0" dy="18" stdDeviation="18" flood-color="#000" flood-opacity=".38"/></filter>
    <filter id="soft" x="-50%" y="-50%" width="200%" height="200%"><feGaussianBlur stdDeviation="18"/></filter>
  </defs>
  <rect width="1600" height="520" rx="38" fill="url(#bg)"/>
  <rect width="1600" height="520" rx="38" fill="url(#grid)"/>
  <rect width="1600" height="520" rx="38" fill="url(#glowA)"/>
  <rect width="1600" height="520" rx="38" fill="url(#glowB)"/>
  <g opacity=".24" fill="none" stroke="#8edfff">
    <path d="M1012 94C1218 132 1362 130 1580 59" stroke-width="1.5"/>
    <path d="M984 148C1200 185 1404 195 1600 137" stroke-width="1.5"/>
    <path d="M1066 366C1230 314 1440 332 1605 415" stroke-width="1.5"/>
  </g>
  <g transform="translate(110 102)" filter="url(#shadow)">
    <rect width="284" height="284" rx="68" fill="url(#panel)" stroke="url(#primary)" stroke-width="3"/>
    <circle cx="142" cy="142" r="104" fill="#0b1429" stroke="#b3f4ff" stroke-opacity=".16"/>
    <path d="M88 88c0-18 20-29 36-19l85 49c17 10 17 34 0 44l-85 49c-16 10-36-1-36-19V88z" fill="url(#primary)"/>
    <path d="M142 89v106M111 142h62" stroke="#fff" stroke-linecap="round" stroke-width="12" opacity=".96"/>
    <rect x="84" y="226" width="116" height="24" rx="12" fill="#7beaff" fill-opacity=".10" stroke="#7beaff" stroke-opacity=".32"/>
    <text x="142" y="243" text-anchor="middle" fill="#c4f6ff" font-size="11" font-family="Arial, Helvetica, sans-serif" font-weight="700" letter-spacing="2.2">CONTROL ROOM</text>
  </g>
  <g transform="translate(454 114)">
    <text x="0" y="0" fill="#8fefff" font-size="25" font-family="Arial, Helvetica, sans-serif" font-weight="800" letter-spacing="9">THARINDUHUB PRESENTS</text>
    <text x="0" y="101" fill="#ffffff" font-size="102" font-family="Arial, Helvetica, sans-serif" font-weight="800" letter-spacing="-3">STREMIO-TG</text>
    <text x="2" y="161" fill="#cbd9fb" font-size="30" font-family="Arial, Helvetica, sans-serif" font-weight="400">Your private Telegram media library — ready for Stremio.</text>
    <g transform="translate(0 211)">
      <rect width="182" height="56" rx="28" fill="#ffffff" fill-opacity=".075" stroke="#cfe8ff" stroke-opacity=".25"/>
      <circle cx="30" cy="28" r="8" fill="#68e9ff"/>
      <text x="51" y="36" fill="#eef7ff" font-size="21" font-family="Arial, Helvetica, sans-serif" font-weight="700">FastAPI</text>
      <rect x="199" width="188" height="56" rx="28" fill="#ffffff" fill-opacity=".075" stroke="#cfe8ff" stroke-opacity=".25"/>
      <path d="M225 20l16 8-16 8 3-8z" fill="#9e7bff"/>
      <text x="255" y="36" fill="#eef7ff" font-size="21" font-family="Arial, Helvetica, sans-serif" font-weight="700">Stremio</text>
      <rect x="404" width="206" height="56" rx="28" fill="#ffffff" fill-opacity=".075" stroke="#cfe8ff" stroke-opacity=".25"/>
      <path d="M431 20h12v16h-12zM448 20h12v16h-12z" fill="#68e9ff"/>
      <text x="476" y="36" fill="#eef7ff" font-size="21" font-family="Arial, Helvetica, sans-serif" font-weight="700">MongoDB</text>
      <rect x="627" width="218" height="56" rx="28" fill="#ffffff" fill-opacity=".075" stroke="#cfe8ff" stroke-opacity=".25"/>
      <path d="M654 18c13 0 18 16 18 20s-5 20-18 20-18-16-18-20 5-20 18-20z" fill="#b18bff" fill-opacity=".92"/>
      <text x="686" y="36" fill="#eef7ff" font-size="21" font-family="Arial, Helvetica, sans-serif" font-weight="700">PWA Ready</text>
    </g>
  </g>
  <g transform="translate(1264 273)" opacity=".95" filter="url(#shadow)">
    <rect width="236" height="148" rx="24" fill="#091226" fill-opacity=".80" stroke="#d8edff" stroke-opacity=".16"/>
    <rect x="22" y="22" width="192" height="15" rx="7.5" fill="#d7e8ff" fill-opacity=".14"/>
    <rect x="22" y="53" width="119" height="12" rx="6" fill="#d7e8ff" fill-opacity=".22"/>
    <rect x="22" y="77" width="168" height="12" rx="6" fill="#d7e8ff" fill-opacity=".13"/>
    <rect x="22" y="108" width="82" height="18" rx="9" fill="url(#primary)"/>
    <circle cx="195" cy="114" r="18" fill="#69eaff" fill-opacity=".14" stroke="#69eaff" stroke-opacity=".45"/>
    <path d="M190 106l13 8-13 8z" fill="#b9f8ff"/>
  </g>
</svg>