<svg xmlns="http://www.w3.org/2000/svg" viewBox="0 0 1600 520" role="img" aria-labelledby="title desc">
  <title id="title">TharinduHub TG Stremio</title>
  <desc id="desc">Telegram to Stremio media server banner</desc>
  <defs>
    <linearGradient id="bg" x1="0" y1="0" x2="1" y2="1">
      <stop offset="0" stop-color="#0a1020"/>
      <stop offset="0.52" stop-color="#132a57"/>
      <stop offset="1" stop-color="#5b1c8e"/>
    </linearGradient>
    <linearGradient id="accent" x1="0" y1="0" x2="1" y2="1">
      <stop offset="0" stop-color="#52e5ff"/>
      <stop offset="1" stop-color="#b67cff"/>
    </linearGradient>
    <filter id="shadow" x="-30%" y="-30%" width="160%" height="160%">
      <feDropShadow dx="0" dy="16" stdDeviation="16" flood-color="#000" flood-opacity=".35"/>
    </filter>
  </defs>
  <rect width="1600" height="520" rx="40" fill="url(#bg)"/>
  <circle cx="1390" cy="54" r="240" fill="#8f48e8" opacity=".22"/>
  <circle cx="1480" cy="480" r="300" fill="#22cbe2" opacity=".12"/>
  <circle cx="90" cy="520" r="240" fill="#3968cf" opacity=".18"/>
  <g opacity=".2" fill="none" stroke="#eaf4ff">
    <path d="M1030 91C1230 155 1360 170 1538 114" stroke-width="2"/>
    <path d="M1015 140C1190 205 1370 233 1570 184" stroke-width="2"/>
    <path d="M1050 365C1240 304 1390 313 1580 385" stroke-width="2"/>
  </g>
  <g transform="translate(112 110)" filter="url(#shadow)">
    <rect width="260" height="260" rx="54" fill="#0a1124" stroke="url(#accent)" stroke-width="5"/>
    <path d="M80 83c0-24 26-39 47-27l91 53c21 12 21 42 0 54l-91 53c-21 12-47-3-47-27V83z" fill="url(#accent)"/>
    <path d="M143 79v120" stroke="#fff" stroke-width="15" stroke-linecap="round" opacity=".96"/>
    <path d="M107 141h72" stroke="#fff" stroke-width="15" stroke-linecap="round" opacity=".96"/>
  </g>
  <g transform="translate(426 122)">
    <text x="0" y="0" font-family="Arial, Helvetica, sans-serif" font-weight="700" font-size="31" letter-spacing="10" fill="#9fdcff">THARINDUHUB</text>
    <text x="0" y="98" font-family="Arial, Helvetica, sans-serif" font-weight="800" font-size="96" fill="#fff">TG STREMIO</text>
    <text x="0" y="158" font-family="Arial, Helvetica, sans-serif" font-weight="400" font-size="31" fill="#c9d8fa">Telegram media library • Stremio streaming • Admin control</text>
    <g transform="translate(0 208)">
      <rect width="178" height="58" rx="29" fill="#ffffff" fill-opacity=".12" stroke="#ffffff" stroke-opacity=".28"/>
      <text x="25" y="38" font-family="Arial, Helvetica, sans-serif" font-size="24" font-weight="700" fill="#fff">v3.6.15</text>
      <rect x="196" width="236" height="58" rx="29" fill="#ffffff" fill-opacity=".12" stroke="#ffffff" stroke-opacity=".28"/>
      <text x="221" y="38" font-family="Arial, Helvetica, sans-serif" font-size="24" font-weight="700" fill="#fff">Split ZIP Ready</text>
      <rect x="450" width="232" height="58" rx="29" fill="#ffffff" fill-opacity=".12" stroke="#ffffff" stroke-opacity=".28"/>
      <text x="475" y="38" font-family="Arial, Helvetica, sans-serif" font-size="24" font-weight="700" fill="#fff">Mobile WebUI</text>
    </g>
  </g>
</svg>
